<?xml version="1.0" encoding="utf-8"?>
<!-- Generator: Adobe Illustrator 16.0.3, SVG Export Plug-In . SVG Version: 6.00 Build 0)  -->
<!DOCTYPE svg PUBLIC "-//W3C//DTD SVG 1.1//EN" "http://www.w3.org/Graphics/SVG/1.1/DTD/svg11.dtd">
<svg version="1.1" id="Layer_1" xmlns="http://www.w3.org/2000/svg" xmlns:xlink="http://www.w3.org/1999/xlink" x="0px" y="0px"
	 width="512px" height="512px" viewBox="0 0 512 512" enable-background="new 0 0 512 512" xml:space="preserve">
<g>
	<path fill="#00AEEF" d="M19.16,484.136V22.52h64.979c14.668,0,25.863,2.204,33.583,6.613c10.808,6.091,20.028,17.112,27.664,33.063
		c9.95,20.575,17.391,46.868,22.324,78.877c4.932,32.015,7.398,68.595,7.398,109.736c0,35.061-1.672,66.125-5.018,93.205
		c-3.345,27.08-7.636,49.49-12.867,67.227c-5.233,17.742-10.959,31.7-17.178,41.88c-6.22,10.185-13.726,17.898-22.517,23.144
		c-8.794,5.25-18.895,7.872-30.302,7.872H19.16z M44.122,429.661h40.274c12.437,0,22.196-2.834,29.272-8.502
		s12.716-13.643,16.92-23.931c5.918-14.484,10.529-33.953,13.832-58.41c3.301-24.453,4.954-54.105,4.954-88.955
		c0-48.28-3.239-85.382-9.715-111.311c-6.478-25.923-14.347-43.296-23.611-52.113c-6.691-6.297-17.457-9.446-32.296-9.446h-39.63
		V429.661z"/>
	<path fill="#00AEEF" d="M196.726,353.146l22.517-7.558c0.599,35.267,3.301,59.409,8.106,72.423
		c4.803,13.019,11.452,19.522,19.944,19.522c6.26,0,11.665-3.513,16.212-10.549c4.546-7.03,7.677-16.58,9.394-28.654
		c1.715-12.068,2.573-31.33,2.573-57.78V22.52h24.962v314.566c0,38.627-1.91,68.541-5.726,89.741
		c-3.818,21.205-9.865,37.368-18.143,48.492c-8.279,11.124-17.994,16.688-29.144,16.688c-16.556,0-29.23-11.65-38.022-34.952
		C200.605,433.755,196.381,399.118,196.726,353.146z"/>
	<path fill="#00AEEF" d="M341.994,484.136V22.52h24.963v189.559h98.047V22.52h24.962v461.616h-24.962V266.553h-98.047v217.583
		H341.994z"/>
</g>
<g>
</g>
<g>
</g>
<g>
</g>
<g>
</g>
<g>
</g>
<g>
</g>
</svg>
